<svg width="33" height="27" viewBox="0 0 33 27" fill="none" xmlns="http://www.w3.org/2000/svg">
<path d="M25.774 7.47595C26.4087 8.11055 26.4087 9.13945 25.774 9.77405L22.0481 13.5L25.774 17.226C26.4087 17.8606 26.4087 18.8894 25.774 19.524C25.1394 20.1587 24.1106 20.1587 23.476 19.524L19.75 15.7981L16.024 19.524C15.3894 20.1587 14.3606 20.1587 13.726 19.524C13.0913 18.8894 13.0913 17.8606 13.726 17.226L17.4519 13.5L13.726 9.77405C13.0913 9.13945 13.0913 8.11055 13.726 7.47595C14.3606 6.84135 15.3894 6.84135 16.024 7.47595L19.75 11.2019L23.476 7.47595C24.1106 6.84135 25.1394 6.84135 25.774 7.47595Z" fill="white"/>
<path fill-rule="evenodd" clip-rule="evenodd" d="M32.75 2.125C32.75 1.22754 32.0225 0.5 31.125 0.5H12.3724C11.4236 0.5 10.5223 0.914579 9.90481 1.63493L1.54767 11.3849C0.504446 12.602 0.504446 14.398 1.54767 15.6151L9.90481 25.3651C10.5223 26.0854 11.4236 26.5 12.3724 26.5H31.125C32.0225 26.5 32.75 25.7725 32.75 24.875V2.125ZM29.5 23.25H12.3724L4.01525 13.5L12.3724 3.75H29.5V23.25Z" fill="white"/>
</svg>
