<?xml version="1.0" encoding="UTF-8" standalone="no"?>
<!DOCTYPE svg PUBLIC "-//W3C//DTD SVG 1.1//EN" "http://www.w3.org/Graphics/SVG/1.1/DTD/svg11.dtd">
<svg width="414" height="736" viewBox="0 0 414 736" fill="none" xmlns="http://www.w3.org/2000/svg">
  <rect width="414" height="736" fill="#140D1B"/>
  <path d="M94.919 256.091C94.5687 256.091 94.2443 256.063 93.946 256.006C93.6525 255.954 93.4181 255.892 93.2429 255.821L93.8395 253.818C94.2135 253.927 94.5473 253.979 94.8409 253.974C95.1345 253.97 95.3925 253.877 95.6151 253.697C95.8423 253.522 96.0341 253.229 96.1903 252.817L96.4105 252.227L92.4545 241.091H95.1818L97.696 249.33H97.8097L100.331 241.091H103.065L98.6974 253.321C98.4938 253.899 98.224 254.393 97.8878 254.805C97.5516 255.222 97.1397 255.539 96.652 255.757C96.169 255.98 95.5914 256.091 94.919 256.091ZM109.232 252.213C108.167 252.213 107.243 251.979 106.462 251.51C105.681 251.041 105.075 250.385 104.644 249.543C104.218 248.7 104.005 247.715 104.005 246.588C104.005 245.461 104.218 244.474 104.644 243.626C105.075 242.779 105.681 242.121 106.462 241.652C107.243 241.183 108.167 240.949 109.232 240.949C110.297 240.949 111.221 241.183 112.002 241.652C112.783 242.121 113.387 242.779 113.813 243.626C114.244 244.474 114.459 245.461 114.459 246.588C114.459 247.715 114.244 248.7 113.813 249.543C113.387 250.385 112.783 251.041 112.002 251.51C111.221 251.979 110.297 252.213 109.232 252.213ZM109.246 250.153C109.824 250.153 110.307 249.995 110.695 249.678C111.083 249.356 111.372 248.925 111.561 248.385C111.756 247.845 111.853 247.244 111.853 246.581C111.853 245.913 111.756 245.31 111.561 244.77C111.372 244.225 111.083 243.792 110.695 243.47C110.307 243.148 109.824 242.987 109.246 242.987C108.654 242.987 108.162 243.148 107.769 243.47C107.381 243.792 107.089 244.225 106.895 244.77C106.706 245.31 106.611 245.913 106.611 246.581C106.611 247.244 106.706 247.845 106.895 248.385C107.089 248.925 107.381 249.356 107.769 249.678C108.162 249.995 108.654 250.153 109.246 250.153ZM123.594 247.412V241.091H126.165V252H123.673V250.061H123.559C123.313 250.672 122.908 251.171 122.344 251.56C121.786 251.948 121.097 252.142 120.278 252.142C119.563 252.142 118.931 251.983 118.381 251.666C117.837 251.344 117.411 250.878 117.103 250.267C116.795 249.652 116.641 248.908 116.641 248.037V241.091H119.212V247.639C119.212 248.33 119.402 248.88 119.781 249.287C120.159 249.694 120.656 249.898 121.272 249.898C121.651 249.898 122.018 249.805 122.373 249.621C122.728 249.436 123.019 249.161 123.246 248.797C123.478 248.428 123.594 247.966 123.594 247.412ZM128.809 252V241.091H131.302V242.909H131.416C131.615 242.279 131.956 241.794 132.439 241.453C132.926 241.107 133.483 240.935 134.108 240.935C134.25 240.935 134.408 240.942 134.583 240.956C134.763 240.965 134.913 240.982 135.031 241.006V243.371C134.922 243.333 134.749 243.3 134.512 243.271C134.28 243.238 134.056 243.222 133.838 243.222C133.369 243.222 132.948 243.323 132.574 243.527C132.204 243.726 131.913 244.003 131.7 244.358C131.487 244.713 131.38 245.123 131.38 245.587V252H128.809ZM141.7 256.091V241.091H144.228V242.895H144.377C144.51 242.63 144.697 242.348 144.939 242.05C145.18 241.747 145.507 241.489 145.919 241.276C146.331 241.058 146.856 240.949 147.495 240.949C148.338 240.949 149.098 241.164 149.775 241.595C150.457 242.021 150.997 242.653 151.395 243.491C151.797 244.325 151.998 245.348 151.998 246.56C151.998 247.758 151.802 248.776 151.409 249.614C151.016 250.452 150.481 251.091 149.804 251.531C149.127 251.972 148.359 252.192 147.502 252.192C146.877 252.192 146.359 252.088 145.947 251.879C145.535 251.671 145.204 251.42 144.953 251.126C144.707 250.828 144.515 250.546 144.377 250.281H144.271V256.091H141.7ZM144.221 246.545C144.221 247.251 144.321 247.869 144.52 248.399C144.723 248.929 145.014 249.344 145.393 249.642C145.777 249.936 146.241 250.082 146.785 250.082C147.353 250.082 147.829 249.931 148.213 249.628C148.596 249.32 148.885 248.901 149.079 248.371C149.278 247.836 149.377 247.227 149.377 246.545C149.377 245.868 149.28 245.267 149.086 244.741C148.892 244.216 148.603 243.804 148.22 243.506C147.836 243.207 147.358 243.058 146.785 243.058C146.236 243.058 145.77 243.203 145.386 243.491C145.002 243.78 144.711 244.185 144.512 244.706C144.318 245.227 144.221 245.84 144.221 246.545ZM157.339 252.22C156.648 252.22 156.025 252.097 155.471 251.851C154.922 251.6 154.486 251.231 154.164 250.743C153.847 250.255 153.689 249.654 153.689 248.939C153.689 248.323 153.802 247.814 154.029 247.412C154.257 247.009 154.567 246.688 154.96 246.446C155.353 246.205 155.796 246.022 156.288 245.899C156.785 245.771 157.299 245.679 157.829 245.622C158.468 245.556 158.987 245.497 159.385 245.445C159.782 245.388 160.071 245.303 160.251 245.189C160.436 245.071 160.528 244.888 160.528 244.642V244.599C160.528 244.064 160.369 243.65 160.052 243.357C159.735 243.063 159.278 242.916 158.681 242.916C158.052 242.916 157.552 243.054 157.183 243.328C156.818 243.603 156.572 243.927 156.444 244.301L154.044 243.96C154.233 243.297 154.546 242.743 154.981 242.298C155.417 241.848 155.949 241.512 156.579 241.29C157.209 241.062 157.905 240.949 158.667 240.949C159.193 240.949 159.716 241.01 160.237 241.134C160.758 241.257 161.234 241.46 161.664 241.744C162.095 242.024 162.441 242.405 162.701 242.888C162.967 243.371 163.099 243.974 163.099 244.699V252H160.627V250.501H160.542C160.386 250.804 160.166 251.089 159.882 251.354C159.602 251.614 159.25 251.825 158.824 251.986C158.402 252.142 157.907 252.22 157.339 252.22ZM158.007 250.331C158.523 250.331 158.97 250.229 159.349 250.026C159.728 249.817 160.019 249.543 160.223 249.202C160.431 248.861 160.535 248.489 160.535 248.087V246.801C160.455 246.867 160.317 246.929 160.123 246.986C159.934 247.043 159.721 247.092 159.484 247.135C159.247 247.178 159.013 247.215 158.781 247.249C158.549 247.282 158.348 247.31 158.177 247.334C157.794 247.386 157.45 247.471 157.147 247.589C156.844 247.708 156.605 247.874 156.43 248.087C156.255 248.295 156.167 248.565 156.167 248.896C156.167 249.37 156.34 249.727 156.686 249.969C157.031 250.21 157.472 250.331 158.007 250.331ZM174.306 243.974L171.963 244.23C171.896 243.993 171.78 243.771 171.615 243.562C171.454 243.354 171.236 243.186 170.961 243.058C170.687 242.93 170.35 242.866 169.953 242.866C169.418 242.866 168.968 242.982 168.603 243.214C168.243 243.446 168.066 243.747 168.071 244.116C168.066 244.434 168.182 244.692 168.419 244.891C168.66 245.089 169.058 245.253 169.612 245.381L171.473 245.778C172.505 246.001 173.272 246.354 173.774 246.837C174.28 247.32 174.536 247.952 174.541 248.733C174.536 249.42 174.335 250.026 173.937 250.551C173.544 251.072 172.997 251.479 172.297 251.773C171.596 252.066 170.791 252.213 169.882 252.213C168.547 252.213 167.472 251.934 166.657 251.375C165.843 250.812 165.358 250.028 165.201 249.024L167.708 248.783C167.822 249.275 168.064 249.647 168.433 249.898C168.802 250.149 169.283 250.274 169.875 250.274C170.485 250.274 170.975 250.149 171.345 249.898C171.719 249.647 171.906 249.337 171.906 248.967C171.906 248.655 171.785 248.397 171.544 248.193C171.307 247.99 170.938 247.833 170.436 247.724L168.575 247.334C167.529 247.116 166.754 246.749 166.252 246.233C165.751 245.712 165.502 245.054 165.507 244.259C165.502 243.586 165.684 243.004 166.054 242.511C166.428 242.014 166.946 241.631 167.609 241.361C168.277 241.086 169.046 240.949 169.917 240.949C171.196 240.949 172.202 241.221 172.936 241.766C173.674 242.31 174.131 243.046 174.306 243.974ZM185.283 243.974L182.939 244.23C182.873 243.993 182.757 243.771 182.591 243.562C182.43 243.354 182.212 243.186 181.938 243.058C181.663 242.93 181.327 242.866 180.929 242.866C180.394 242.866 179.944 242.982 179.58 243.214C179.22 243.446 179.042 243.747 179.047 244.116C179.042 244.434 179.158 244.692 179.395 244.891C179.637 245.089 180.034 245.253 180.588 245.381L182.449 245.778C183.481 246.001 184.248 246.354 184.75 246.837C185.257 247.32 185.513 247.952 185.517 248.733C185.513 249.42 185.311 250.026 184.914 250.551C184.521 251.072 183.974 251.479 183.273 251.773C182.572 252.066 181.767 252.213 180.858 252.213C179.523 252.213 178.448 251.934 177.634 251.375C176.819 250.812 176.334 250.028 176.178 249.024L178.685 248.783C178.799 249.275 179.04 249.647 179.409 249.898C179.779 250.149 180.259 250.274 180.851 250.274C181.462 250.274 181.952 250.149 182.321 249.898C182.695 249.647 182.882 249.337 182.882 248.967C182.882 248.655 182.762 248.397 182.52 248.193C182.283 247.99 181.914 247.833 181.412 247.724L179.551 247.334C178.505 247.116 177.731 246.749 177.229 246.233C176.727 245.712 176.479 245.054 176.483 244.259C176.479 243.586 176.661 243.004 177.03 242.511C177.404 242.014 177.923 241.631 178.586 241.361C179.253 241.086 180.023 240.949 180.894 240.949C182.172 240.949 183.178 241.221 183.912 241.766C184.651 242.31 185.108 243.046 185.283 243.974ZM189.889 252L186.806 241.091H189.427L191.345 248.761H191.444L193.404 241.091H195.997L197.957 248.719H198.064L199.953 241.091H202.581L199.491 252H196.814L194.768 244.628H194.619L192.574 252H189.889ZM208.822 252.213C207.756 252.213 206.833 251.979 206.052 251.51C205.271 251.041 204.665 250.385 204.234 249.543C203.808 248.7 203.594 247.715 203.594 246.588C203.594 245.461 203.808 244.474 204.234 243.626C204.665 242.779 205.271 242.121 206.052 241.652C206.833 241.183 207.756 240.949 208.822 240.949C209.887 240.949 210.81 241.183 211.592 241.652C212.373 242.121 212.977 242.779 213.403 243.626C213.834 244.474 214.049 245.461 214.049 246.588C214.049 247.715 213.834 248.7 213.403 249.543C212.977 250.385 212.373 251.041 211.592 251.51C210.81 251.979 209.887 252.213 208.822 252.213ZM208.836 250.153C209.414 250.153 209.897 249.995 210.285 249.678C210.673 249.356 210.962 248.925 211.151 248.385C211.345 247.845 211.442 247.244 211.442 246.581C211.442 245.913 211.345 245.31 211.151 244.77C210.962 244.225 210.673 243.792 210.285 243.47C209.897 243.148 209.414 242.987 208.836 242.987C208.244 242.987 207.752 243.148 207.359 243.47C206.97 243.792 206.679 244.225 206.485 244.77C206.296 245.31 206.201 245.913 206.201 246.581C206.201 247.244 206.296 247.845 206.485 248.385C206.679 248.925 206.97 249.356 207.359 249.678C207.752 249.995 208.244 250.153 208.836 250.153ZM216.231 252V241.091H218.724V242.909H218.838C219.037 242.279 219.377 241.794 219.86 241.453C220.348 241.107 220.904 240.935 221.529 240.935C221.672 240.935 221.83 240.942 222.005 240.956C222.185 240.965 222.334 240.982 222.453 241.006V243.371C222.344 243.333 222.171 243.3 221.934 243.271C221.702 243.238 221.477 243.222 221.26 243.222C220.791 243.222 220.369 243.323 219.995 243.527C219.626 243.726 219.335 244.003 219.122 244.358C218.909 244.713 218.802 245.123 218.802 245.587V252H216.231ZM227.76 252.192C226.903 252.192 226.136 251.972 225.459 251.531C224.782 251.091 224.247 250.452 223.854 249.614C223.461 248.776 223.264 247.758 223.264 246.56C223.264 245.348 223.463 244.325 223.861 243.491C224.263 242.653 224.805 242.021 225.487 241.595C226.169 241.164 226.929 240.949 227.767 240.949C228.406 240.949 228.932 241.058 229.344 241.276C229.756 241.489 230.082 241.747 230.324 242.05C230.565 242.348 230.752 242.63 230.885 242.895H230.991V237.455H233.57V252H231.041V250.281H230.885C230.752 250.546 230.561 250.828 230.31 251.126C230.059 251.42 229.727 251.671 229.315 251.879C228.903 252.088 228.385 252.192 227.76 252.192ZM228.477 250.082C229.022 250.082 229.486 249.936 229.869 249.642C230.253 249.344 230.544 248.929 230.743 248.399C230.942 247.869 231.041 247.251 231.041 246.545C231.041 245.84 230.942 245.227 230.743 244.706C230.549 244.185 230.26 243.78 229.876 243.491C229.498 243.203 229.031 243.058 228.477 243.058C227.904 243.058 227.426 243.207 227.043 243.506C226.659 243.804 226.37 244.216 226.176 244.741C225.982 245.267 225.885 245.868 225.885 246.545C225.885 247.227 225.982 247.836 226.176 248.371C226.375 248.901 226.666 249.32 227.05 249.628C227.438 249.931 227.914 250.082 228.477 250.082ZM241.27 252V241.091H243.728V242.945H243.855C244.083 242.32 244.459 241.832 244.985 241.482C245.51 241.126 246.138 240.949 246.867 240.949C247.605 240.949 248.228 241.129 248.735 241.489C249.246 241.844 249.606 242.329 249.814 242.945H249.928C250.169 242.339 250.577 241.856 251.15 241.496C251.727 241.131 252.411 240.949 253.202 240.949C254.206 240.949 255.025 241.266 255.659 241.901C256.294 242.535 256.611 243.461 256.611 244.678V252H254.033V245.075C254.033 244.398 253.853 243.903 253.493 243.591C253.133 243.274 252.693 243.115 252.172 243.115C251.552 243.115 251.067 243.309 250.716 243.697C250.371 244.081 250.198 244.58 250.198 245.196V252H247.676V244.969C247.676 244.405 247.506 243.955 247.165 243.619C246.829 243.283 246.389 243.115 245.844 243.115C245.475 243.115 245.139 243.21 244.836 243.399C244.533 243.584 244.291 243.847 244.111 244.188C243.931 244.524 243.841 244.917 243.841 245.366V252H241.27ZM262.359 252.22C261.667 252.22 261.045 252.097 260.491 251.851C259.942 251.6 259.506 251.231 259.184 250.743C258.867 250.255 258.708 249.654 258.708 248.939C258.708 248.323 258.822 247.814 259.049 247.412C259.276 247.009 259.586 246.688 259.979 246.446C260.372 246.205 260.815 246.022 261.308 245.899C261.805 245.771 262.318 245.679 262.849 245.622C263.488 245.556 264.006 245.497 264.404 245.445C264.802 245.388 265.091 245.303 265.271 245.189C265.455 245.071 265.548 244.888 265.548 244.642V244.599C265.548 244.064 265.389 243.65 265.072 243.357C264.754 243.063 264.298 242.916 263.701 242.916C263.071 242.916 262.572 243.054 262.202 243.328C261.838 243.603 261.592 243.927 261.464 244.301L259.063 243.96C259.253 243.297 259.565 242.743 260.001 242.298C260.436 241.848 260.969 241.512 261.599 241.29C262.228 241.062 262.924 240.949 263.687 240.949C264.212 240.949 264.736 241.01 265.256 241.134C265.777 241.257 266.253 241.46 266.684 241.744C267.115 242.024 267.46 242.405 267.721 242.888C267.986 243.371 268.119 243.974 268.119 244.699V252H265.647V250.501H265.562C265.406 250.804 265.185 251.089 264.901 251.354C264.622 251.614 264.269 251.825 263.843 251.986C263.422 252.142 262.927 252.22 262.359 252.22ZM263.026 250.331C263.542 250.331 263.99 250.229 264.369 250.026C264.747 249.817 265.039 249.543 265.242 249.202C265.451 248.861 265.555 248.489 265.555 248.087V246.801C265.474 246.867 265.337 246.929 265.143 246.986C264.953 247.043 264.74 247.092 264.504 247.135C264.267 247.178 264.032 247.215 263.8 247.249C263.568 247.282 263.367 247.31 263.197 247.334C262.813 247.386 262.47 247.471 262.167 247.589C261.864 247.708 261.625 247.874 261.45 248.087C261.274 248.295 261.187 248.565 261.187 248.896C261.187 249.37 261.36 249.727 261.705 249.969C262.051 250.21 262.491 250.331 263.026 250.331ZM273.275 245.608V252H270.704V241.091H273.161V242.945H273.289C273.54 242.334 273.94 241.848 274.489 241.489C275.043 241.129 275.728 240.949 276.542 240.949C277.295 240.949 277.951 241.11 278.509 241.432C279.073 241.754 279.508 242.22 279.816 242.831C280.129 243.442 280.282 244.183 280.278 245.054V252H277.707V245.452C277.707 244.723 277.517 244.152 277.138 243.74C276.764 243.328 276.246 243.122 275.583 243.122C275.133 243.122 274.733 243.222 274.383 243.42C274.037 243.615 273.765 243.896 273.566 244.266C273.372 244.635 273.275 245.082 273.275 245.608ZM286.031 252.22C285.339 252.22 284.717 252.097 284.163 251.851C283.613 251.6 283.178 251.231 282.856 250.743C282.539 250.255 282.38 249.654 282.38 248.939C282.38 248.323 282.494 247.814 282.721 247.412C282.948 247.009 283.258 246.688 283.651 246.446C284.044 246.205 284.487 246.022 284.979 245.899C285.477 245.771 285.99 245.679 286.521 245.622C287.16 245.556 287.678 245.497 288.076 245.445C288.474 245.388 288.763 245.303 288.942 245.189C289.127 245.071 289.219 244.888 289.219 244.642V244.599C289.219 244.064 289.061 243.65 288.744 243.357C288.426 243.063 287.969 242.916 287.373 242.916C286.743 242.916 286.244 243.054 285.874 243.328C285.51 243.603 285.263 243.927 285.136 244.301L282.735 243.96C282.924 243.297 283.237 242.743 283.673 242.298C284.108 241.848 284.641 241.512 285.271 241.29C285.9 241.062 286.596 240.949 287.359 240.949C287.884 240.949 288.407 241.01 288.928 241.134C289.449 241.257 289.925 241.46 290.356 241.744C290.787 242.024 291.132 242.405 291.393 242.888C291.658 243.371 291.79 243.974 291.79 244.699V252H289.319V250.501H289.234C289.077 250.804 288.857 251.089 288.573 251.354C288.294 251.614 287.941 251.825 287.515 251.986C287.094 252.142 286.599 252.22 286.031 252.22ZM286.698 250.331C287.214 250.331 287.662 250.229 288.04 250.026C288.419 249.817 288.71 249.543 288.914 249.202C289.122 248.861 289.227 248.489 289.227 248.087V246.801C289.146 246.867 289.009 246.929 288.815 246.986C288.625 247.043 288.412 247.092 288.175 247.135C287.939 247.178 287.704 247.215 287.472 247.249C287.24 247.282 287.039 247.31 286.869 247.334C286.485 247.386 286.142 247.471 285.839 247.589C285.536 247.708 285.297 247.874 285.121 248.087C284.946 248.295 284.859 248.565 284.859 248.896C284.859 249.37 285.031 249.727 285.377 249.969C285.723 250.21 286.163 250.331 286.698 250.331ZM299.12 256.318C298.197 256.318 297.404 256.193 296.741 255.942C296.078 255.696 295.545 255.364 295.143 254.947C294.74 254.531 294.461 254.069 294.305 253.562L296.62 253.001C296.724 253.214 296.876 253.425 297.075 253.634C297.273 253.847 297.541 254.022 297.877 254.159C298.218 254.301 298.647 254.372 299.163 254.372C299.892 254.372 300.496 254.195 300.974 253.839C301.452 253.489 301.691 252.911 301.691 252.107V250.04H301.563C301.431 250.305 301.237 250.577 300.981 250.857C300.73 251.136 300.396 251.37 299.979 251.56C299.567 251.749 299.049 251.844 298.424 251.844C297.586 251.844 296.826 251.647 296.144 251.254C295.467 250.857 294.927 250.265 294.525 249.479C294.127 248.688 293.928 247.698 293.928 246.51C293.928 245.312 294.127 244.301 294.525 243.477C294.927 242.649 295.469 242.021 296.151 241.595C296.833 241.164 297.593 240.949 298.431 240.949C299.07 240.949 299.596 241.058 300.008 241.276C300.424 241.489 300.756 241.747 301.002 242.05C301.248 242.348 301.435 242.63 301.563 242.895H301.705V241.091H304.241V252.178C304.241 253.11 304.018 253.882 303.573 254.493C303.128 255.104 302.52 255.561 301.748 255.864C300.976 256.167 300.1 256.318 299.12 256.318ZM299.141 249.827C299.686 249.827 300.15 249.694 300.533 249.429C300.917 249.164 301.208 248.783 301.407 248.286C301.606 247.788 301.705 247.192 301.705 246.496C301.705 245.809 301.606 245.208 301.407 244.692C301.213 244.176 300.924 243.776 300.54 243.491C300.162 243.203 299.695 243.058 299.141 243.058C298.568 243.058 298.09 243.207 297.707 243.506C297.323 243.804 297.034 244.214 296.84 244.734C296.646 245.25 296.549 245.838 296.549 246.496C296.549 247.163 296.646 247.748 296.84 248.25C297.039 248.747 297.33 249.135 297.714 249.415C298.102 249.689 298.578 249.827 299.141 249.827ZM311.705 252.213C310.612 252.213 309.667 251.986 308.871 251.531C308.081 251.072 307.472 250.423 307.046 249.585C306.62 248.742 306.407 247.75 306.407 246.609C306.407 245.487 306.62 244.502 307.046 243.655C307.477 242.803 308.078 242.14 308.85 241.666C309.622 241.188 310.529 240.949 311.57 240.949C312.243 240.949 312.877 241.058 313.474 241.276C314.075 241.489 314.605 241.82 315.065 242.27C315.529 242.72 315.893 243.293 316.158 243.989C316.424 244.68 316.556 245.504 316.556 246.46V247.249H307.614V245.516H314.092C314.087 245.023 313.98 244.585 313.772 244.202C313.564 243.813 313.272 243.508 312.898 243.286C312.529 243.063 312.098 242.952 311.606 242.952C311.08 242.952 310.619 243.08 310.221 243.335C309.823 243.586 309.513 243.918 309.29 244.33C309.073 244.737 308.961 245.184 308.957 245.672V247.185C308.957 247.819 309.073 248.364 309.305 248.818C309.537 249.268 309.861 249.614 310.278 249.855C310.694 250.092 311.182 250.21 311.741 250.21C312.115 250.21 312.453 250.158 312.756 250.054C313.059 249.945 313.322 249.786 313.545 249.578C313.767 249.37 313.935 249.112 314.049 248.804L316.45 249.074C316.298 249.708 316.009 250.262 315.583 250.736C315.162 251.205 314.622 251.569 313.964 251.83C313.306 252.085 312.553 252.213 311.705 252.213ZM318.731 252V241.091H321.224V242.909H321.338C321.537 242.279 321.877 241.794 322.36 241.453C322.848 241.107 323.404 240.935 324.029 240.935C324.172 240.935 324.33 240.942 324.505 240.956C324.685 240.965 324.834 240.982 324.953 241.006V243.371C324.844 243.333 324.671 243.3 324.434 243.271C324.202 243.238 323.977 243.222 323.76 243.222C323.291 243.222 322.869 243.323 322.495 243.527C322.126 243.726 321.835 244.003 321.622 244.358C321.409 244.713 321.302 245.123 321.302 245.587V252H318.731Z" fill="white"/>
  <path d="M88.3165 222.785V183.688H98.9307V199.495H99.4652L111.225 183.688H123.595L110.385 201.098L123.901 222.785H111.225L102.443 208.123L98.9307 212.705V222.785H88.3165Z" fill="#00FFD1"/>
  <path d="M126.745 222.785V183.688H154.922V192.24H137.359V198.96H153.472V207.513H137.359V214.232H154.846V222.785H126.745Z" fill="#00FFD1"/>
  <path d="M160.187 183.688V222.785H188.288V214.232H170.801V207.513H186.913V198.96H170.801V192.24H188.364V183.688H160.187Z" fill="#00FFD1"/>
  <path d="M193.628 183.688H206.838L215.925 205.833H216.384L225.471 183.688H238.681V222.785H228.296V200.182H227.991L219.285 222.479H213.024L204.319 200.029H204.013V222.785H193.628V183.688Z" fill="#00FFD1"/>
  <path d="M254.326 222.785V183.688H243.711V222.785H254.326Z" fill="#00FFD1"/>
  <path d="M87 220.785V181.688H97.6142V197.495H98.1487L109.908 181.688H122.279L109.068 199.098L122.584 220.785H109.908L101.127 206.123L97.6142 210.705V220.785H87Z" fill="white"/>
  <path d="M125.429 220.785V181.688H153.606V190.24H136.043V196.96H152.155V205.513H136.043V212.232H153.53V220.785H125.429Z" fill="white"/>
  <path d="M158.87 181.688V220.785H186.971V212.232H169.484V205.513H185.596V196.96H169.484V190.24H187.047V181.688H158.87Z" fill="white"/>
  <path d="M192.311 181.688H205.522L214.609 203.833H215.067L224.154 181.688H237.365V220.785H226.979V198.182H226.674L217.969 220.479H211.707L203.002 198.029H202.697V220.785H192.311V181.688Z" fill="white"/>
  <path d="M253.009 220.785V181.688H242.395V220.785H253.009Z" fill="white"/>
  <path fill-rule="evenodd" clip-rule="evenodd" d="M260.519 180C259.035 180 257.832 181.203 257.832 182.688V221.663C257.832 223.147 259.035 224.351 260.519 224.351H298.15C299.594 224.351 300.772 223.213 300.835 221.785H305.211C309.182 221.785 312.625 221.008 315.539 219.456C318.454 217.89 320.706 215.65 322.297 212.736C323.888 209.809 324.683 206.309 324.683 202.236C324.683 198.164 323.882 194.67 322.278 191.756C320.687 188.829 318.422 186.589 315.482 185.036C312.555 183.471 309.08 182.688 305.059 182.688L300.838 182.688C300.838 181.203 299.635 180 298.15 180H260.519ZM300.838 212.774V191.699H304.524C306.56 191.699 308.278 192.01 309.678 192.634C311.091 193.258 312.16 194.333 312.886 195.86C313.624 197.387 313.993 199.513 313.993 202.236C313.993 204.96 313.63 207.085 312.905 208.613C312.192 210.14 311.148 211.215 309.774 211.839C308.412 212.462 306.764 212.774 304.829 212.774H300.838ZM292.326 186.695V218.435H285.135L273.666 201.759H273.48V218.435H264.863V186.695H272.179L283.461 203.309H283.709V186.695H292.326Z" fill="#00FFD1"/>
</svg>

