<svg width="238" height="45" viewBox="0 0 238 45" fill="none" xmlns="http://www.w3.org/2000/svg">
  <path d="M1.31653 42.7848V3.68791H11.9307V19.4947H12.4652L24.2249 3.68791H36.5954L23.3849 21.0982L36.9008 42.7848H24.2249L15.4433 28.1235L11.9307 32.7051V42.7848H1.31653Z" fill="#00FFD1"/>
  <path d="M39.7452 42.7848V3.68791H67.9225V12.2404H50.3594V18.9601H66.4716V27.5126H50.3594V34.2324H67.8461V42.7848H39.7452Z" fill="#00FFD1"/>
  <path d="M73.1866 3.68791V42.7848H101.288V34.2324H83.8008V27.5126H99.913V18.9601H83.8008V12.2404H101.364V3.68791H73.1866Z" fill="#00FFD1"/>
  <path d="M106.628 3.68791H119.838L128.925 25.8326H129.384L138.471 3.68791H151.681V42.7848H141.296V20.1819H140.991L132.285 42.4793H126.024L117.319 20.0292H117.013V42.7848H106.628V3.68791Z" fill="#00FFD1"/>
  <path d="M167.326 42.7848V3.68791H156.711V42.7848H167.326Z" fill="#00FFD1"/>
  <path d="M0 40.7848V1.68791H10.6142V17.4947H11.1487L22.9083 1.68791H35.2788L22.0684 19.0982L35.5843 40.7848H22.9083L14.1268 26.1235L10.6142 30.7051V40.7848H0Z" fill="white"/>
  <path d="M38.4287 40.7848V1.68791H66.606V10.2404H49.0429V16.9601H65.1551V25.5126H49.0429V32.2324H66.5296V40.7848H38.4287Z" fill="white"/>
  <path d="M71.8701 1.68791V40.7848H99.971V32.2324H82.4843V25.5126H98.5965V16.9601H82.4843V10.2404H100.047V1.68791H71.8701Z" fill="white"/>
  <path d="M105.311 1.68791H118.522L127.609 23.8326H128.067L137.154 1.68791H150.365V40.7848H139.979V18.1819H139.674L130.969 40.4793H124.707L116.002 18.0292H115.697V40.7848H105.311V1.68791Z" fill="white"/>
  <path d="M166.009 40.7848V1.68791H155.395V40.7848H166.009Z" fill="white"/>
  <path fill-rule="evenodd" clip-rule="evenodd" d="M173.519 0C172.035 0 170.832 1.20342 170.832 2.68791V41.6626C170.832 43.1471 172.035 44.3505 173.519 44.3505H211.15C212.594 44.3505 213.772 43.2126 213.835 41.7848H218.211C222.182 41.7848 225.625 41.0084 228.539 39.4558C231.454 37.8904 233.706 35.6504 235.297 32.736C236.888 29.8088 237.683 26.3089 237.683 22.2363C237.683 18.1638 236.882 14.6702 235.278 11.7558C233.687 8.82861 231.422 6.58869 228.482 5.03602C225.555 3.47061 222.08 2.68791 218.059 2.68791L213.838 2.68791C213.838 1.20342 212.635 0 211.15 0H173.519ZM213.838 32.7742V11.6985H217.524C219.56 11.6985 221.278 12.0103 222.678 12.6339C224.091 13.2576 225.16 14.333 225.886 15.8602C226.624 17.3874 226.993 19.5128 226.993 22.2363C226.993 24.9599 226.63 27.0853 225.905 28.6125C225.192 30.1397 224.148 31.2151 222.774 31.8388C221.412 32.4624 219.764 32.7742 217.829 32.7742H213.838ZM205.326 6.69483V38.4354H198.135L186.666 21.7592H186.48V38.4354H177.863V6.69483H185.179L196.461 23.309H196.709V6.69483H205.326Z" fill="#00FFD1"/>
</svg>
