<svg width="80" height="15" viewBox="0 0 80 15" fill="none" xmlns="http://www.w3.org/2000/svg">
<path fill-rule="evenodd" clip-rule="evenodd" d="M58.4036 0C57.9039 0 57.4989 0.407014 57.4989 0.909091V14.0909C57.4989 14.593 57.9039 15 58.4036 15H71.0694C71.5553 15 71.9517 14.6151 71.9732 14.1322H73.446C74.7825 14.1322 75.9412 13.8697 76.9222 13.3445C77.9032 12.8151 78.6614 12.0575 79.1968 11.0718C79.7323 10.0818 80 8.89807 80 7.52066C80 6.14325 79.7301 4.96169 79.1904 3.97598C78.6549 2.98597 77.8924 2.22839 76.9029 1.70325C75.9177 1.17381 74.7483 0.909091 73.3946 0.909091L71.9741 0.909091C71.9741 0.407014 71.5691 0 71.0694 0H58.4036ZM71.9741 11.0847V3.95661H73.2147C73.9001 3.95661 74.4784 4.06207 74.9496 4.27299C75.4251 4.4839 75.7849 4.84762 76.0291 5.36415C76.2775 5.88068 76.4017 6.59952 76.4017 7.52066C76.4017 8.4418 76.2797 9.16064 76.0355 9.67717C75.7956 10.1937 75.4444 10.5574 74.9817 10.7683C74.5234 10.9793 73.9686 11.0847 73.3175 11.0847H71.9741ZM69.1092 2.26429V12.9994H66.6888L62.8286 7.35928H62.766V12.9994H59.8657V2.26429H62.3278L66.1254 7.88345H66.2089V2.26429H69.1092Z" fill="#00FFD1"/>
<path d="M0 14.1322V0.909091H3.57255V6.25517H3.75246L7.71053 0.909091H11.8742L7.42781 6.79752L11.977 14.1322H7.71053L4.75483 9.17355L3.57255 10.7231V14.1322H0Z" fill="#00FFD1"/>
<path d="M12.9344 14.1322V0.909091H22.4184V3.80165H16.507V6.07438H21.93V8.96694H16.507V11.2397H22.3927V14.1322H12.9344Z" fill="#00FFD1"/>
<path d="M24.1902 0.909091V14.1322H33.6484V11.2397H27.7627V8.96694H33.1858V6.07438H27.7627V3.80165H33.6741V0.909091H24.1902Z" fill="#00FFD1"/>
<path d="M35.446 0.909091H39.8924L42.9509 8.39876H43.1051L46.1636 0.909091H50.61V14.1322H47.1146V6.4876H47.0118L44.0818 14.0289H41.9742L39.0442 6.43595H38.9414V14.1322H35.446V0.909091Z" fill="#00FFD1"/>
<path d="M55.8757 14.1322V0.909091H52.3031V14.1322H55.8757Z" fill="#00FFD1"/>
</svg>
